<?xml version="1.0" encoding="UTF-8" standalone="no"?>
<!-- Created with Inkscape (http://www.inkscape.org/) -->

<svg
   width="529.42975"
   height="162.04301"
   viewBox="0 0 529.42975 162.04301"
   version="1.1"
   id="svg950"
   inkscape:version="1.3.2 (091e20e, 2023-11-25, custom)"
   sodipodi:docname="icon - コピー - コピー.svg"
   xmlns:inkscape="http://www.inkscape.org/namespaces/inkscape"
   xmlns:sodipodi="http://sodipodi.sourceforge.net/DTD/sodipodi-0.dtd"
   xmlns="http://www.w3.org/2000/svg"
   xmlns:svg="http://www.w3.org/2000/svg">
  <sodipodi:namedview
     id="namedview952"
     pagecolor="#ffffff"
     bordercolor="#000000"
     borderopacity="0.25"
     inkscape:showpageshadow="2"
     inkscape:pageopacity="0.0"
     inkscape:pagecheckerboard="0"
     inkscape:deskcolor="#d1d1d1"
     inkscape:document-units="px"
     showgrid="false"
     inkscape:zoom="0.37282197"
     inkscape:cx="439.88824"
     inkscape:cy="-439.88824"
     inkscape:window-width="1920"
     inkscape:window-height="1057"
     inkscape:window-x="1912"
     inkscape:window-y="-8"
     inkscape:window-maximized="1"
     inkscape:current-layer="svg950" />
  <defs
     id="defs947" />
  <path
     id="path1"
     style="color:#000000;fill:#ffffff;stroke-linecap:square;stroke-miterlimit:3.3;-inkscape-stroke:none;paint-order:fill markers stroke"
     d="m 0,0 v 40 h 20 102.04297 v 82.04297 H 20 0 v 40.00004 H 20 162.04297 V 0 H 20 Z m 183.69336,0 v 20 41.02149 40 41.02148 20.00004 h 40 v -20.00004 -41.02148 h 102.04297 20 v -40 h -20 -102.04297 V 20 0 Z m 183.69337,0 v 20 122.04297 20.00004 h 40 V 142.04297 20 0 Z m 72.7539,0 v 20 11.13477 20 h 40 v -20 V 20 0 Z m 49.2891,0 v 20 11.13477 20 h 40 v -20 V 20 0 Z m 0,61.0332 v 20 61.00977 20.00004 h 40 v -20.00004 -61.00977 -20 z" />
  <g
     inkscape:label="レイヤー"
     inkscape:groupmode="layer"
     id="layer1"
     transform="translate(-658.61708,-780.82226)" />
</svg>
