<svg xmlns="http://www.w3.org/2000/svg" xmlns:xlink="http://www.w3.org/1999/xlink" width="608.555" height="608.555"><defs><linearGradient id="a"><stop offset="0" style="stop-color:#1700ff;stop-opacity:1"/><stop offset="1" style="stop-color:#ff00ac;stop-opacity:1"/></linearGradient><linearGradient xlink:href="#a" id="b" x1="-38.334" x2="570.22" y1="235.199" y2="235.199" gradientUnits="userSpaceOnUse"/></defs><path d="M-38.334-69.078h608.555v608.555H-38.334z" style="fill:url(#b);fill-opacity:1;stroke:none;stroke-width:40;stroke-linecap:square;stroke-linejoin:miter;stroke-miterlimit:3.3;stroke-dasharray:none;stroke-opacity:1;paint-order:fill markers stroke" transform="translate(38.334 69.078)"/><path d="M21.229 0h122.042v122.042H21.23" style="fill:none;stroke:#fff;stroke-width:40;stroke-linecap:square;stroke-miterlimit:3.3;stroke-dasharray:none;stroke-opacity:1;paint-order:fill markers stroke" transform="translate(38.334 69.078)"/><path d="M204.922 61.021h122.042M204.922 0v122.042M461.37 0v11.134M510.656 0v11.134m0 110.908v-61.01M388.615 0v122.042M21.229 356.356v119.411h66.386v-119.41ZM249.657 475.767v-119.41H231.47m82.301 0v119.41h66.386v-119.41Zm130.5 0v119.41h66.386v-119.41ZM388.616 209.012v47.319m-245.344-47.319v47.319m122.671-47.319v47.319m244.714-47.319H21.23v64.374m489.428-64.374v64.374" style="fill:none;stroke:#fff;stroke-width:40;stroke-linecap:square;stroke-linejoin:miter;stroke-miterlimit:3.3;stroke-dasharray:none;stroke-opacity:1;paint-order:fill markers stroke" transform="translate(38.334 69.078)"/></svg>